<?xml version="1.0" encoding="UTF-8" standalone="no"?>
<!-- Created with Inkscape (http://www.inkscape.org/) -->

<svg
   width="200mm"
   height="200mm"
   viewBox="0 0 200 200"
   version="1.1"
   id="svg1"
   inkscape:version="1.3 (0e150ed6c4, 2023-07-21)"
   sodipodi:docname="blank.svg"
   xmlns:inkscape="http://www.inkscape.org/namespaces/inkscape"
   xmlns:sodipodi="http://sodipodi.sourceforge.net/DTD/sodipodi-0.dtd"
   xmlns="http://www.w3.org/2000/svg"
   xmlns:svg="http://www.w3.org/2000/svg">
  <sodipodi:namedview
     id="namedview1"
     pagecolor="#ffffff"
     bordercolor="#000000"
     borderopacity="0.25"
     inkscape:showpageshadow="2"
     inkscape:pageopacity="0.0"
     inkscape:pagecheckerboard="true"
     inkscape:deskcolor="#d1d1d1"
     inkscape:document-units="mm"
     inkscape:zoom="1.1908949"
     inkscape:cx="429.9288"
     inkscape:cy="369.05021"
     inkscape:window-width="1920"
     inkscape:window-height="1011"
     inkscape:window-x="0"
     inkscape:window-y="0"
     inkscape:window-maximized="1"
     inkscape:current-layer="layer1" />
  <defs
     id="defs1">
    <linearGradient
       id="swatch1"
       inkscape:swatch="solid">
      <stop
         style="stop-color:#000000;stop-opacity:1;"
         offset="0"
         id="stop1" />
    </linearGradient>
  </defs>
  <g
     inkscape:label="Layer 1"
     inkscape:groupmode="layer"
     id="layer1">
    <path
       id="path33"
       style="fill:none;fill-opacity:0;stroke:#000000;stroke-width:2.165"
       d="M 132.70048,37.371299 A 36.122086,6.8687816 0 0 1 98.121778,44.233808 36.122086,6.8687816 0 0 1 60.588202,37.957724 36.122086,6.8687816 0 0 1 91.959536,30.558902 36.122086,6.8687816 0 0 1 132.1739,36.202731" />
    <path
       style="fill:none;fill-opacity:0;stroke:#000000;stroke-width:2.165;stroke-dasharray:none;stroke-opacity:1"
       d="m 51.68526,144.69704 c -2.134974,5.87951 10.760846,12.3036 44.132556,12.40503 32.674274,-0.0241 43.025384,-6.31824 42.638774,-12.02681"
       id="path35"
       sodipodi:nodetypes="ccc" />
    <path
       style="fill:none;fill-opacity:0;stroke:#000000;stroke-width:2.165;stroke-dasharray:none;stroke-opacity:1"
       d="m 52.80048,45.902831 c -2.13497,5.87951 10.76085,12.3036 44.13256,12.40503 32.67428,-0.0241 43.02538,-6.31824 42.63877,-12.02681"
       id="path35-6"
       sodipodi:nodetypes="ccc" />
    <path
       style="fill:none;fill-opacity:0;stroke:#000000;stroke-width:2.165;stroke-dasharray:none;stroke-opacity:1"
       d="m 139.37206,47.089152 c 0,0 -7.16852,-2.720737 -6.86737,-9.977773"
       id="path36"
       sodipodi:nodetypes="cc" />
    <path
       style="fill:none;fill-opacity:0;stroke:#000000;stroke-width:2.165;stroke-dasharray:none;stroke-opacity:1"
       d="m 52.593112,47.233218 c 0,0 7.51913,-2.599238 7.6658,-10.281523"
       id="path37"
       sodipodi:nodetypes="cc" />
    <path
       style="fill:none;fill-opacity:0;stroke:#000000;stroke-width:2.165;stroke-dasharray:none;stroke-opacity:1"
       d="m 57.71001,161.90688 c -0.402507,7.5901 27.345242,11.47405 42.32966,11.46485 16.10747,-0.01 34.34993,-3.3153 34.70062,-8.9307"
       id="path38"
       sodipodi:nodetypes="csc" />
    <path
       style="fill:none;fill-opacity:0;stroke:#000000;stroke-width:2.165;stroke-dasharray:none;stroke-opacity:1"
       d="m 58.430331,163.09845 c 0,0 -1.419815,-9.03615 -7.820276,-18.33265"
       id="path39"
       sodipodi:nodetypes="cc" />
    <path
       style="fill:none;fill-opacity:0;stroke:#000000;stroke-width:2.165;stroke-dasharray:none;stroke-opacity:1"
       d="m 134.24735,166.18629 c 0,0 -2.8353,-11.257 3.5695,-18.13825"
       id="path40"
       sodipodi:nodetypes="cc" />
    <path
       style="fill:none;fill-opacity:0;stroke:#000000;stroke-width:2.165;stroke-dasharray:none;stroke-opacity:1"
       d="M 52.618282,46.814041 51.596811,145.00099"
       id="path41" />
    <path
       style="fill:none;fill-opacity:0;stroke:#000000;stroke-width:2.165;stroke-dasharray:none;stroke-opacity:1"
       d="M 138.41828,47.869358 138.22735,146.8313"
       id="path42" />
  </g>
</svg>
